<?xml version="1.0" encoding="UTF-8" standalone="no"?>
<svg width="84px" height="24px" viewBox="0 0 84 24" version="1.1" xmlns="http://www.w3.org/2000/svg" xmlns:xlink="http://www.w3.org/1999/xlink" xmlns:sketch="http://www.bohemiancoding.com/sketch/ns">
    <title>logo-hello</title>
    <desc>Created with Sketch.</desc>
    <defs></defs>
    <g id="Page-1" stroke="none" stroke-width="1" fill="none" fill-rule="evenodd" sketch:type="MSPage">
        <g id="logo-hello" sketch:type="MSLayerGroup" transform="translate(-1.000000, 0.000000)" fill="#000000">
            <g id="Design" sketch:type="MSShapeGroup">
                <g id="Artboard">
                    <g id="Logos">
                        <g id="Row">
                            <path d="M1.00407043,5.61777396 C1.08454829,5.19432111 1.13372454,4.76205682 1.25070695,4.34892595 C1.92713217,1.95938809 3.98141556,0.261842335 6.44962703,0.0341294339 C6.64419212,0.0162128301 6.84005794,0.00286978565 7.03529437,0.00278586713 C11.0207946,0.000981618976 15.0062949,-0.00245904029 18.9917532,0.00278586713 C21.7454974,0.00635240418 24.0851038,1.79784494 24.7945929,4.45978232 C24.9156873,4.91415914 24.9893258,5.3956836 24.9910042,5.86499792 C25.0058997,9.9623196 25.0108929,14.0597252 24.9953679,18.1570049 C24.9846683,20.9887095 22.7430788,23.518643 19.9390674,23.9114656 C19.7531459,23.9374803 19.5678118,23.967691 19.382226,23.9959296 C13.3155885,23.9959296 7.24895092,23.9952163 1.18231336,23.9999996 C1.03105023,24.0001255 0.999874501,23.9689498 1.00000038,23.8176866 C1.00478373,17.7510491 1.00407043,11.6844115 1.00407043,5.61777396 L1.00407043,5.61777396 L1.00407043,5.61777396 Z M21.9804693,11.9939869 C21.9803853,7.05433312 17.9670661,3.04030057 13.0138594,3.02578267 C8.0819681,3.01130672 4.06076051,7.02655609 4.0421306,11.9841685 C4.02362657,16.9229831 8.07605184,20.9774224 13.0145728,20.9609744 C17.9712201,20.9444844 21.9805112,16.9346897 21.9804693,11.9939869 L21.9804693,11.9939869 Z M31.0246198,12.2473789 C31.0246198,9.48557849 31.0239065,6.72373612 31.0250813,3.96193571 C31.025417,3.12144978 31.4887731,2.46596223 32.2130738,2.36257462 C32.6593945,2.29888046 33.1190162,2.32367838 33.5727636,2.31742645 C34.0201752,2.3113004 34.0202172,2.31612572 34.0202172,2.76257224 C34.0202172,4.79021149 34.0199235,6.8178927 34.0216018,8.84557391 C34.0216438,8.91061076 34.0419101,8.97564761 34.0527356,9.04068446 C34.0981775,9.00019378 34.1468083,8.96276612 34.1886417,8.91883477 C35.1349488,7.9249458 36.3137942,7.41430161 37.6630362,7.31103987 C39.0228099,7.20698091 40.312176,7.45378527 41.4405444,8.27358528 C42.6252641,9.13433753 43.2541494,10.3384424 43.4965481,11.7536023 C43.5821869,12.2536308 43.6188174,12.7675478 43.6213769,13.2754227 C43.6337549,15.7365431 43.6234748,18.1977474 43.6327059,20.6589097 C43.633587,20.8864547 43.5643962,20.9303861 43.3543062,20.927407 C42.5294291,20.9157003 41.7041744,20.9157423 40.8792973,20.9275329 C40.6783125,20.930428 40.6230521,20.8797832 40.6234717,20.6751059 C40.628339,18.2000132 40.6379896,15.7247525 40.6131078,13.2498276 C40.6035411,12.2959677 40.3410439,11.4060118 39.5971482,10.739447 C38.8491825,10.0691898 37.9337154,9.92724165 36.9851843,10.0470353 C35.3904807,10.2484817 34.4755171,11.1738932 34.1577177,12.8775231 C34.0648199,13.3754956 34.0296161,13.8903357 34.0261754,14.3978329 C34.0119932,16.4813619 34.0156856,18.5650168 34.0264691,20.6485877 C34.0277279,20.8868324 33.9591245,20.9318966 33.7367824,20.9281622 C32.9119473,20.9142318 32.0866926,20.9156164 31.2618155,20.9276587 C31.0616279,20.9305539 31.0206337,20.8653073 31.0209693,20.6796795 C31.0262142,17.8689126 31.0246198,15.0581458 31.0246198,12.2473789 L31.0246198,12.2473789 Z M50.1483914,15.7597465 C49.6313694,15.7597465 49.1142216,15.7667957 48.5974094,15.7557185 C48.4298241,15.75211 48.3936972,15.792223 48.4312927,15.9553606 C48.7683094,17.4186898 49.7311486,18.2538469 51.1442945,18.5792409 C52.9877745,19.0037428 54.7807776,18.7182939 56.5283388,18.067338 C56.7200506,17.9959653 56.783535,18.0052383 56.830865,18.2158738 C56.9731069,18.8487033 57.1348599,19.477295 57.296487,20.1055929 C57.3338307,20.250688 57.3115084,20.3221866 57.1595319,20.3868458 C55.5150646,21.0863906 53.7935601,21.3352929 52.020236,21.2688714 C50.4513793,21.2100865 48.9859941,20.8098371 47.7043485,19.8673063 C46.370086,18.886089 45.6117144,17.5428892 45.3302516,15.9311501 C45.0289842,14.2062889 45.1792822,12.5246457 46.0226633,10.9630479 C47.1470037,8.8811134 48.9123975,7.68858929 51.2533466,7.38589519 C52.5624335,7.21663154 53.844163,7.37918171 55.0704643,7.89855342 C56.8015775,8.63170756 57.755731,10.3255189 57.5429137,12.1872093 C57.3621952,13.7677307 56.4332171,14.6735472 55.0098752,15.177352 C53.8854509,15.5753776 52.7129414,15.7030176 51.5317043,15.7619704 C51.0717049,15.7849221 50.6095657,15.7657048 50.1483495,15.7657048 C50.1483914,15.7637327 50.1483914,15.7617186 50.1483914,15.7597465 L50.1483914,15.7597465 Z M50.1879171,13.6462167 C50.7388002,13.614957 51.3194324,13.5997678 51.8962883,13.5446753 C52.557818,13.4814427 53.2128859,13.3675233 53.8084557,13.0452762 C54.4276904,12.7102315 54.6970689,12.1853631 54.6416407,11.4854407 C54.5889399,10.819841 54.2092505,10.4056192 53.610408,10.191543 C52.7604393,9.88771603 51.886344,9.84227415 51.0136333,10.0829105 C49.4357973,10.5179441 48.5244003,12.1145359 48.3158627,13.4000837 C48.3091073,13.4417912 48.4082151,13.5419899 48.4629299,13.545976 C49.0273659,13.5870122 49.5927669,13.6137822 50.1879171,13.6462167 L50.1879171,13.6462167 Z M84.7389335,14.304054 C84.7371293,18.1594805 81.5870798,21.3036557 77.744325,21.2856971 C73.8753036,21.2675707 70.7795914,18.1675786 70.7756892,14.3073687 C70.771787,10.4444315 73.9053045,7.31469033 77.7620738,7.32941803 C81.6254726,7.34414573 84.7407378,10.4584039 84.7389335,14.304054 L84.7389335,14.304054 Z M81.7667494,14.3552862 C81.7502174,13.3205289 81.4734542,12.415174 80.8962206,11.6023812 C79.4973409,9.63272961 76.7728423,9.39062469 75.0581352,11.0877928 C73.5760082,12.5547724 73.3110775,15.0118227 74.4459076,16.7658457 C75.466189,18.3428425 77.2637656,19.0299253 78.9108344,18.4724127 C80.6137089,17.8959764 81.7639801,16.2201655 81.7667494,14.3552862 L81.7667494,14.3552862 Z M61.9734758,10.5007828 C61.9734758,12.8707257 61.973266,15.2406266 61.9736017,17.6105695 C61.9737276,18.350521 62.3119611,18.6738591 63.0479685,18.6338719 C63.1940707,18.6259416 63.3467604,18.6238856 63.4830441,18.5787374 C63.692169,18.5095466 63.759136,18.5828494 63.8039065,18.7808552 C63.9531556,19.4408324 64.1225871,20.096236 64.2747314,20.7556258 C64.2868576,20.8080329 64.2393178,20.919141 64.1970648,20.9326099 C63.2134978,21.2464652 62.2092029,21.4182883 61.1873691,21.1780296 C59.9277101,20.8817973 59.0043127,19.7272882 59.0000329,18.436034 C58.9876969,14.6819391 58.9940327,10.9278022 58.9932355,7.17366526 C58.9929418,5.86638257 58.9963405,4.55905793 58.9894172,3.25177524 C58.9884941,3.07915485 59.0327611,3.0261603 59.2098292,3.02804847 C60.055602,3.03711167 60.9016685,3.03824457 61.7473993,3.02746104 C61.9386077,3.02498544 61.9775458,3.08670751 61.9771682,3.2652022 C61.9716716,5.67706239 61.9734758,8.08892258 61.9734758,10.5007828 L61.9734758,10.5007828 Z M68.4699021,10.5219722 C68.4699021,12.8986705 68.4696923,15.2753689 68.4700279,17.6520672 C68.4701538,18.3387724 68.8167373,18.6720129 69.4976102,18.635802 C69.6576428,18.6272843 69.8239274,18.6248926 69.9746031,18.5783598 C70.1821336,18.514246 70.2481774,18.5773108 70.2938291,18.7804775 C70.4390921,19.4269439 70.6108313,20.067368 70.7606678,20.7128273 C70.7761088,20.7793747 70.7302054,20.9177144 70.6838824,20.932568 C69.6938956,21.2494023 68.6828873,21.4192954 67.6541721,21.1736239 C66.44306,20.8843568 65.5477334,19.7572471 65.4954102,18.5143719 C65.4895359,18.3747315 65.4855917,18.2349233 65.4855497,18.0951989 C65.4850462,13.1880216 65.4848364,8.28084423 65.4856756,3.37366689 C65.4857595,2.97547352 65.4485417,3.03438432 65.8367068,3.0329577 C66.6265898,3.03006251 67.4165988,3.03887396 68.206314,3.02746104 C68.4095227,3.02452389 68.4765316,3.06535025 68.4756924,3.28710494 C68.4664194,5.69871337 68.4699021,8.11036376 68.4699021,10.5219722 L68.4699021,10.5219722 Z M13.0057194,12.0020431 C14.9286283,12.0020431 16.8515792,12.0049803 18.7744881,11.9973437 C18.9628013,11.9966304 19.004299,12.0459325 18.999096,12.2291686 C18.9195413,15.0468587 16.6853786,17.5403716 13.8993257,17.911753 C10.704212,18.3376815 7.88639599,16.4015134 7.1641093,13.2719821 C7.08296009,12.9202795 7.07150521,12.5528843 7.01985336,12.1938808 C6.99602051,12.0281837 7.0642043,11.9985185 7.21588702,11.9988962 C9.14580316,12.0036795 11.0757613,12.0020431 13.0057194,12.0020431 L13.0057194,12.0020431 Z" id="logo-hello"></path>
                        </g>
                    </g>
                </g>
            </g>
        </g>
    </g>
</svg>